<svg width="126" height="64" viewBox="0 0 126 64" fill="none" xmlns="http://www.w3.org/2000/svg">
<path d="M31.5205 0C40.4401 5.81942e-05 48.4933 3.70621 54.2275 9.66113L54.2246 9.66504L56.4238 12.2021C56.4898 12.287 56.5579 12.3705 56.623 12.4561L56.6367 12.4473L81.9131 41.5967L81.9814 41.5361C84.9275 45.2327 89.4682 47.6025 94.5625 47.6025C101.418 47.6023 107.27 43.3115 109.583 37.2695H125.559C122.857 51.9338 110.008 63.0437 94.5625 63.0439L94.1553 63.041C85.005 62.9252 76.7947 58.9097 71.1084 52.5811L71.082 52.5967L61.8037 41.8711L61.4814 41.3379C61.4689 41.3762 61.4541 41.4139 61.4414 41.4521L43.5977 20.8232L43.5557 20.8594C40.6098 17.537 36.31 15.4424 31.5205 15.4424C22.6405 15.4426 15.4418 22.6405 15.4414 31.5205C15.4414 40.4008 22.6403 47.6003 31.5205 47.6006C36.5979 47.6005 41.1243 45.246 44.0713 41.5703L61.7949 62.0596H44.9961C44.9831 62.0429 44.2414 60.6689 43.5537 59.7559C39.7693 61.3643 35.8917 63.0429 31.5205 63.043L30.708 63.0322C13.6752 62.6009 0 48.6572 0 31.5205C0.000359717 14.1124 14.1123 0.000262567 31.5205 0ZM94.9697 0.00390625C110.197 0.196956 122.819 11.1878 125.538 25.6709H109.543C107.203 19.6843 101.378 15.4436 94.5625 15.4434C89.4694 15.4434 84.9296 17.8118 81.9834 21.5068L71.7803 9.73926C77.519 3.73924 85.6043 0.00195312 94.5625 0.00195312L94.9697 0.00390625Z" fill="#AC00FF"/>
</svg>
