<svg width="412" height="21" viewBox="0 0 412 21" fill="none" xmlns="http://www.w3.org/2000/svg">
<path d="M11.4872 14.3871C11.4872 17.822 8.92507 20.2715 5.74358 20.2715C2.56209 20.2715 0 17.822 0 14.3871V5.8562C0 2.42131 2.56209 0 5.74358 0C8.92507 0 11.4872 2.42131 11.4872 5.8562V14.3871ZM3.2378 14.3871C3.2378 16.0482 4.364 17.0337 5.74358 17.0337C7.12317 17.0337 8.24936 16.0482 8.24936 14.3871V5.88436C8.24936 4.22322 7.12317 3.2378 5.74358 3.2378C4.364 3.2378 3.2378 4.22322 3.2378 5.88436V14.3871Z" fill="#FFFFFF"/>
<path d="M45.6966 11.5998V19.9899H42.4588V0.281548H45.6966V8.36198H50.4829V0.281548H53.7207V19.9899H50.4829V11.5998H45.6966Z" fill="#FFFFFF"/>
<path d="M97.4948 0.281548V19.9899H93.8347L88.2037 7.06686V19.9899H84.9659V0.281548H88.6261L94.257 13.2328V0.281548H97.4948Z" fill="#FFFFFF"/>
<path d="M138.733 0.281548V3.51935H131.976V8.36198H138.17V11.5716H131.976V16.7521H138.733V19.9899H128.738V0.281548H138.733Z" fill="#FFFFFF"/>
<path d="M207.999 0.281548V16.7521H214.756V19.9899H204.761V0.281548H207.999Z" fill="#FFFFFF"/>
<path d="M248.252 0.281548V19.9899H245.014V0.281548H248.252Z" fill="#FFFFFF"/>
<path d="M287.376 14.2463L291.458 0.281548H295.259V19.9899H292.021V8.7843L288.784 19.9899H285.968L282.73 8.7843V19.9899H279.493V0.281548H283.293L287.376 14.2463Z" fill="#FFFFFF"/>
<path d="M329.747 0.281548V19.9899H326.509V0.281548H329.747Z" fill="#FFFFFF"/>
<path d="M359.861 0.281548H370.701V3.51935H366.9V19.9899H363.662V3.51935H359.861V0.281548Z" fill="#FFFFFF"/>
<path d="M407.923 9.06585C409.95 10.0231 411.752 11.9939 411.752 14.5279C411.752 17.9628 409.19 20.2715 406.008 20.2715C402.827 20.2715 400.265 17.822 400.265 14.3871V13.2328H403.502V14.3871C403.502 16.0482 404.629 17.0337 406.008 17.0337C407.388 17.0337 408.514 16.1327 408.514 14.6123C408.514 13.4862 407.669 12.6415 406.853 12.2473L404.122 10.9522C402.151 10.0231 400.377 8.13674 400.377 5.60281C400.377 2.28054 402.827 0 406.008 0C409.19 0 411.752 2.42131 411.752 5.8562V6.75716H408.514V5.88436C408.514 4.22322 407.388 3.2378 406.008 3.2378C404.629 3.2378 403.615 4.05429 403.615 5.49019C403.615 6.61638 404.347 7.37656 405.192 7.77073L407.923 9.06585Z" fill="#FFFFFF"/>
</svg>
