<svg width="414" height="122" viewBox="0 0 414 122" fill="none" xmlns="http://www.w3.org/2000/svg">
<path d="M114.941 21.8242C123.861 21.8244 131.914 25.5305 137.648 31.4854L137.646 31.4893L139.85 34.0312C139.914 34.1141 139.98 34.1957 140.044 34.2793L140.058 34.2705L165.334 63.4209L165.402 63.3604C168.348 67.0568 172.889 69.4268 177.983 69.4268C184.838 69.4263 190.691 65.1356 193.004 59.0938H208.979C206.278 73.7578 193.429 84.8677 177.983 84.8682L177.576 84.8652C168.426 84.7494 160.216 80.7338 154.529 74.4053L154.503 74.4209L145.225 63.6953L144.902 63.1621C144.89 63.2004 144.875 63.2381 144.862 63.2764L127.019 42.6475L126.977 42.6836C124.031 39.3613 119.731 37.2668 114.941 37.2666C106.061 37.2669 98.8627 44.4647 98.8623 53.3447C98.8623 62.225 106.061 69.4245 114.941 69.4248C120.019 69.4246 124.545 67.07 127.492 63.3945L145.216 83.8838H128.417C128.404 83.8671 127.662 82.4932 126.975 81.5801C123.19 83.1885 119.312 84.867 114.941 84.8672L114.129 84.8564C97.0961 84.4251 83.4209 70.4814 83.4209 53.3447C83.4213 35.9366 97.5333 21.8245 114.941 21.8242ZM314.247 21.8525C324.011 21.8526 331.992 24.9523 338.191 31.1514C344.391 37.2732 347.258 46.4565 346.793 58.7002H298.206C299.213 62.4971 301.151 65.6356 304.019 68.1152C306.963 70.5172 310.605 71.7187 314.944 71.7188C318.199 71.7188 321.337 70.8659 324.359 69.1611C327.382 67.4563 329.552 65.2861 330.869 62.6514L339.856 72.8701C337.236 75.9522 333.608 78.798 329.822 80.9014C325.018 83.5359 319.826 84.8535 314.247 84.8535C305.181 84.8535 297.432 81.753 291 75.5537C284.646 69.3544 281.468 61.9154 281.468 53.2363C281.468 44.5574 284.646 37.1569 291 31.0352C297.432 24.9135 305.181 21.8525 314.247 21.8525ZM81.4824 83.6924H63.1162L56.6797 63.7939H24.1113L17.668 83.6924H0L26.8506 0.00195312H53.8174L81.4824 83.6924ZM232.581 23.2471H250.481C265.825 23.2471 273.496 31.2292 273.496 47.1924V83.6904H256.525V47.3086C256.525 43.0466 255.363 39.8696 253.038 37.7773C250.713 35.6077 247.924 34.5226 244.67 34.5225C241.338 34.5225 238.471 35.6464 236.068 37.8936C233.744 40.1408 232.581 43.279 232.581 47.3086V83.6904H215.61V0H232.581V23.2471ZM390.004 23.2471C397.288 23.2471 402.945 25.185 406.975 29.0596C411.004 32.8567 413.02 38.6685 413.02 46.4951V83.6904H396.049V47.3086C396.049 43.1241 394.886 39.9471 392.562 37.7773C390.314 35.6076 387.602 34.5225 384.425 34.5225C381.093 34.5225 378.187 35.6463 375.707 37.8936C373.305 40.1408 372.104 43.2791 372.104 47.3086V83.6904H355.133V23.2471H390.004ZM178.391 21.8281C193.617 22.0214 206.24 33.0121 208.959 47.4951H192.964C190.624 41.5087 184.799 37.268 177.983 37.2676C172.89 37.2676 168.35 39.6362 165.404 43.3311L155.201 31.5635C160.94 25.5636 169.025 21.8262 177.983 21.8262L178.391 21.8281ZM42.8916 19.9746C42.1437 17.5641 38.7331 17.5586 37.9775 19.9668L29.3672 47.416H51.4014L42.8916 19.9746ZM314.247 34.29C310.373 34.29 306.963 35.4139 304.019 37.6611C301.151 39.9084 299.213 43.1241 298.206 47.3086H329.822C328.815 43.1241 326.878 39.9084 324.011 37.6611C321.144 35.4139 317.889 34.2901 314.247 34.29Z" fill="#AC0AC0"/>
<path d="M114.968 21.8457C123.887 21.8458 131.941 25.5519 137.675 31.5068L137.672 31.5107L139.871 34.0479C139.937 34.1327 140.005 34.2162 140.07 34.3018L140.084 34.293L165.36 63.4424L165.429 63.3818C168.375 67.0784 172.915 69.4482 178.01 69.4482C184.865 69.448 190.717 65.1572 193.03 59.1152H209.006C206.304 73.7795 193.455 84.8894 178.01 84.8896L177.603 84.8867C168.452 84.7709 160.242 80.7554 154.556 74.4268L154.529 74.4424L145.251 63.7168L144.929 63.1836C144.916 63.2219 144.901 63.2596 144.889 63.2979L127.045 42.6689L127.003 42.7051C124.057 39.3827 119.757 37.2881 114.968 37.2881C106.088 37.2883 98.889 44.4862 98.8887 53.3662C98.8887 62.2465 106.088 69.446 114.968 69.4463C120.045 69.4462 124.572 67.0917 127.519 63.416L145.242 83.9053H128.443C128.43 83.8886 127.689 82.5146 127.001 81.6016C123.217 83.21 119.339 84.8886 114.968 84.8887L114.155 84.8779C97.1225 84.4466 83.4473 70.5029 83.4473 53.3662C83.4476 35.9581 97.5596 21.846 114.968 21.8457ZM178.417 21.8496C193.644 22.0427 206.266 33.0335 208.985 47.5166H192.99C190.65 41.53 184.825 37.2893 178.01 37.2891C172.917 37.2891 168.377 39.6575 165.431 43.3525L155.228 31.585C160.966 25.5849 169.052 21.8477 178.01 21.8477L178.417 21.8496Z" fill="white"/>
<path d="M12.7606 115.446C12.7606 118.881 10.1985 121.33 7.01702 121.33C3.83552 121.33 1.27344 118.881 1.27344 115.446V106.915C1.27344 103.48 3.83552 101.059 7.01702 101.059C10.1985 101.059 12.7606 103.48 12.7606 106.915V115.446ZM4.51124 115.446C4.51124 117.107 5.63743 118.092 7.01702 118.092C8.3966 118.092 9.5228 117.107 9.5228 115.446V106.943C9.5228 105.282 8.3966 104.296 7.01702 104.296C5.63743 104.296 4.51124 105.282 4.51124 106.943V115.446Z" fill="#AC0AC0"/>
<path d="M46.97 112.658V121.049H43.7322V101.34H46.97V109.421H51.7563V101.34H54.9941V121.049H51.7563V112.658H46.97Z" fill="#AC0AC0"/>
<path d="M98.7683 101.34V121.049H95.1081L89.4772 108.125V121.049H86.2394V101.34H89.8995L95.5305 114.291V101.34H98.7683Z" fill="#AC0AC0"/>
<path d="M140.006 101.34V104.578H133.249V109.421H139.443V112.63H133.249V117.811H140.006V121.049H130.011V101.34H140.006Z" fill="#AC0AC0"/>
<path d="M209.273 101.34V117.811H216.03V121.049H206.035V101.34H209.273Z" fill="#AC0AC0"/>
<path d="M249.525 101.34V121.049H246.287V101.34H249.525Z" fill="#AC0AC0"/>
<path d="M288.649 115.305L292.732 101.34H296.533V121.049H293.295V109.843L290.057 121.049H287.242L284.004 109.843V121.049H280.766V101.34H284.567L288.649 115.305Z" fill="#AC0AC0"/>
<path d="M331.02 101.34V121.049H327.782V101.34H331.02Z" fill="#AC0AC0"/>
<path d="M361.135 101.34H371.974V104.578H368.173V121.049H364.936V104.578H361.135V101.34Z" fill="#AC0AC0"/>
<path d="M409.196 110.124C411.223 111.082 413.025 113.053 413.025 115.586C413.025 119.021 410.463 121.33 407.282 121.33C404.1 121.33 401.538 118.881 401.538 115.446V114.291H404.776V115.446C404.776 117.107 405.902 118.092 407.282 118.092C408.661 118.092 409.787 117.191 409.787 115.671C409.787 114.545 408.943 113.7 408.126 113.306L405.395 112.011C403.424 111.082 401.651 109.195 401.651 106.661C401.651 103.339 404.1 101.059 407.282 101.059C410.463 101.059 413.025 103.48 413.025 106.915V107.816H409.787V106.943C409.787 105.282 408.661 104.296 407.282 104.296C405.902 104.296 404.888 105.113 404.888 106.549C404.888 107.675 405.62 108.435 406.465 108.829L409.196 110.124Z" fill="#AC0AC0"/>
</svg>
